<?xml version="1.0" encoding="UTF-8" standalone="no"?>
<svg
   xmlns:dc="http://purl.org/dc/elements/1.1/"
   xmlns:cc="http://creativecommons.org/ns#"
   xmlns:rdf="http://www.w3.org/1999/02/22-rdf-syntax-ns#"
   xmlns:svg="http://www.w3.org/2000/svg"
   xmlns="http://www.w3.org/2000/svg"
   version="1.1"
   id="svg2"
   viewBox="0 0 85.000001 85.000001"
   height="85"
   width="85">
  <defs
     id="defs4" />
  <metadata
     id="metadata7">
    <rdf:RDF>
      <cc:Work
         rdf:about="">
        <dc:format>image/svg+xml</dc:format>
        <dc:type
           rdf:resource="http://purl.org/dc/dcmitype/StillImage" />
        <dc:title></dc:title>
      </cc:Work>
    </rdf:RDF>
  </metadata>
  <g
     transform="translate(0,-967.36216)"
     id="layer1">
    <g
       transform="matrix(5.1112161,0,0,5.1112161,-283.03572,-4208.9552)"
       id="g3620">
      <path
         id="path3636"
         d="m 60.555574,1028.7146 c -1.674636,-0.6125 -4.036052,-3.0302 -4.611018,-4.721 -1.430851,-4.2075 0.353836,-8.6562 4.221787,-10.5236 1.813605,-0.8755 5.020473,-0.9227 6.806515,-0.1001 2.942219,1.3551 4.757126,3.9709 4.957797,7.1455 0.209245,3.3103 -1.342006,6.1387 -4.229682,7.7121 -1.206273,0.6572 -1.77426,0.7882 -3.687622,0.8507 -1.592931,0.052 -2.615397,-0.056 -3.457777,-0.3636 z m 1.861266,-4.7401 c 0.496457,-0.5122 1.03528,-0.9313 1.197383,-0.9313 0.162104,0 0.700926,0.4191 1.197384,0.9313 0.496457,0.5122 1.036366,0.9313 1.199798,0.9313 0.163432,0 0.631138,-0.3486 1.039347,-0.7747 l 0.742199,-0.7747 -1.135852,-1.2322 -1.135852,-1.2323 1.133086,-1.1545 1.133087,-1.1545 -0.805787,-0.8964 -0.805787,-0.8963 -1.202987,1.1752 -1.202986,1.1752 -1.232254,-1.1359 -1.232254,-1.1358 -0.774688,0.7422 c -0.426079,0.4082 -0.774689,0.8649 -0.774689,1.0149 0,0.15 0.479506,0.7613 1.065568,1.3585 l 1.065568,1.0857 -1.065568,1.0405 c -0.586062,0.5723 -1.065568,1.1582 -1.065568,1.302 0,0.3695 1.096891,1.4931 1.457654,1.4931 0.165302,0 0.706741,-0.4191 1.203198,-0.9313 z"
         style="fill:#f1dbaa" />
      <path
         id="path3634"
         d="m 61.006054,1028.7947 c -6.923268,-2.5772 -7.394497,-12.0077 -0.762149,-15.2526 1.948422,-0.9533 4.823138,-1.0222 6.728953,-0.1613 5.098611,2.3031 6.63189,8.8384 3.054232,13.0181 -1.475397,1.7236 -3.35915,2.5846 -5.8774,2.6863 -1.383276,0.056 -2.487249,-0.046 -3.143636,-0.2905 z m 1.732174,-4.8742 1.009038,-0.9853 1.009038,0.9853 c 0.554971,0.5419 1.17588,0.9853 1.379798,0.9853 0.440715,0 1.602442,-1.0391 1.602442,-1.4332 0,-0.1519 -0.479506,-0.7648 -1.065568,-1.3619 l -1.065568,-1.0858 1.065568,-1.0405 c 0.586062,-0.5722 1.065568,-1.1734 1.065568,-1.3358 0,-0.1624 -0.360519,-0.6407 -0.801153,-1.0629 l -0.801153,-0.7676 -1.194486,1.1723 -1.194486,1.1723 -1.194486,-1.1723 -1.194486,-1.1723 -0.801153,0.7676 c -0.440634,0.4222 -0.801153,0.8903 -0.801153,1.0403 0,0.15 0.479506,0.7613 1.065568,1.3585 l 1.065568,1.0857 -1.065568,1.0405 c -0.586062,0.5723 -1.065568,1.1582 -1.065568,1.302 0,0.4231 1.121624,1.4931 1.565153,1.4931 0.224427,0 0.862116,-0.4434 1.417087,-0.9853 z"
         style="fill:#4fb4dd" />
      <path
         id="path3632"
         d="m 61.006054,1028.7949 c -6.905373,-2.5721 -7.395542,-12.0074 -0.791643,-15.2384 1.247244,-0.6102 1.787145,-0.7153 3.494464,-0.6805 4.755752,0.097 8.096308,3.3995 8.131206,8.0385 0.02467,3.2799 -1.549622,5.8628 -4.500665,7.3839 -1.635694,0.8432 -4.747742,1.0871 -6.333362,0.4965 z m 1.561077,-4.7316 1.202742,-1.1087 1.146264,1.125 1.146264,1.1249 0.838071,-0.7051 c 0.46094,-0.3879 0.838072,-0.8499 0.838072,-1.0267 0,-0.1768 -0.479506,-0.7897 -1.065568,-1.362 l -1.065568,-1.0405 1.065568,-1.0857 c 0.586062,-0.5972 1.065568,-1.1944 1.065568,-1.3272 0,-0.3087 -1.358081,-1.734 -1.652239,-1.734 -0.122236,0 -0.737769,0.4751 -1.36785,1.0559 l -1.145601,1.056 -1.031136,-1.056 c -0.567125,-0.5808 -1.148791,-1.0559 -1.292592,-1.0559 -0.423122,0 -1.493138,1.1216 -1.493138,1.5651 0,0.2244 0.443385,0.8621 0.9853,1.4171 l 0.985299,1.009 -0.985299,1.0091 c -0.541915,0.5549 -0.9853,1.177 -0.9853,1.3824 0,0.319 1.259484,1.8659 1.519196,1.8659 0.04906,0 0.630439,-0.4989 1.291947,-1.1086 z"
         style="fill:#af9364" />
      <path
         id="path3630"
         d="m 60.987671,1028.7146 c -1.757361,-0.6071 -3.924827,-2.6319 -4.712289,-4.4021 -0.721663,-1.6223 -0.853045,-4.4803 -0.281757,-6.1291 0.599505,-1.7303 2.234851,-3.5149 4.054042,-4.4239 1.421534,-0.7104 1.945185,-0.8275 3.699599,-0.8275 1.748857,0 2.279575,0.1179 3.678861,0.8171 2.868089,1.4332 4.389411,3.9028 4.413954,7.1654 0.02468,3.2807 -1.551749,5.8663 -4.500665,7.3819 -1.722103,0.8851 -4.475653,1.0664 -6.351745,0.4182 z m 1.618661,-4.6624 1.140934,-1.1198 1.194486,1.1723 1.194486,1.1723 0.801153,-0.7675 c 0.440634,-0.4222 0.801153,-0.9032 0.801153,-1.069 0,-0.1658 -0.435408,-0.8102 -0.967572,-1.4319 l -0.967572,-1.1304 0.967572,-0.9909 c 1.122145,-1.1491 1.181109,-1.5051 0.389019,-2.3482 -0.77845,-0.8286 -1.099412,-0.7813 -2.347618,0.3464 l -1.065107,0.9623 -1.065107,-0.9623 c -1.241628,-1.1217 -1.482204,-1.1617 -2.31033,-0.3837 -0.844327,0.7932 -0.777296,1.2293 0.369459,2.4037 l 0.985299,1.009 -0.985299,1.0091 c -0.541915,0.5549 -0.9853,1.177 -0.9853,1.3824 0,0.3537 1.272151,1.8659 1.569701,1.8659 0.07684,0 0.65313,-0.5039 1.280643,-1.1197 z"
         style="fill:#1f98d2" />
      <path
         id="path3628"
         d="m 60.987671,1028.7146 c -1.757361,-0.6071 -3.924827,-2.6319 -4.712289,-4.4021 -0.460035,-1.0342 -0.624462,-1.8913 -0.626299,-3.2649 -0.0031,-2.2961 0.393589,-3.4889 1.717121,-5.1633 2.919069,-3.6929 8.755005,-4.0197 12.097199,-0.6776 3.857207,3.8573 2.851205,10.3641 -2.011545,13.0107 -1.784033,0.971 -4.490331,1.1792 -6.464187,0.4972 z m 1.618661,-4.6624 1.140934,-1.1198 1.194486,1.1723 1.194486,1.1723 0.801153,-0.7675 c 0.440634,-0.4222 0.801153,-0.9032 0.801153,-1.069 0,-0.1658 -0.435408,-0.8102 -0.967572,-1.4319 l -0.967572,-1.1304 0.967572,-0.9909 c 1.122145,-1.1491 1.181109,-1.5051 0.389019,-2.3482 -0.791651,-0.8427 -1.229359,-0.7772 -2.391431,0.3575 l -0.996783,0.9733 -1.077363,-0.9733 c -0.592549,-0.5353 -1.245981,-0.9733 -1.452071,-0.9733 -0.206089,0 -0.692043,0.3771 -1.079898,0.838 l -0.705191,0.8381 1.124973,1.1463 1.124973,1.1462 -1.116585,1.2114 c -0.930153,1.0091 -1.070488,1.2975 -0.840504,1.7272 0.253799,0.4742 1.278454,1.3414 1.585001,1.3414 0.07166,0 0.643707,-0.5039 1.27122,-1.1197 z"
         style="fill:#8f714e" />
      <path
         id="path3626"
         d="m 61.618584,1028.9302 c -3.665912,-1.2063 -5.927064,-4.2009 -5.952007,-7.8826 -0.02204,-3.2531 1.781918,-6.1067 4.727438,-7.4783 1.906019,-0.8875 4.800483,-0.8875 6.706502,0 6.11976,2.8496 6.324773,11.397 0.351341,14.6481 -1.096062,0.5966 -1.822818,0.7842 -3.287591,0.8488 -1.034258,0.046 -2.179815,-0.016 -2.545683,-0.136 z m 0.987748,-4.878 1.140934,-1.1198 1.194486,1.1723 1.194486,1.1723 0.801153,-0.7675 c 0.440634,-0.4222 0.801153,-0.9497 0.801153,-1.1722 0,-0.2226 -0.443385,-0.8588 -0.9853,-1.4137 l -0.985299,-1.0091 0.985299,-1.009 c 1.140163,-1.1676 1.20091,-1.5211 0.406747,-2.3664 -0.793204,-0.8443 -1.229303,-0.7773 -2.403687,0.3695 l -1.009038,0.9853 -1.009038,-0.9853 c -0.554971,-0.542 -1.202888,-0.9853 -1.439816,-0.9853 -0.236927,0 -0.748112,0.3771 -1.135967,0.838 l -0.705191,0.8381 1.124973,1.1463 1.124973,1.1462 -1.116585,1.2114 c -0.930153,1.0091 -1.070488,1.2975 -0.840504,1.7272 0.253799,0.4742 1.278454,1.3414 1.585001,1.3414 0.07166,0 0.643707,-0.5039 1.27122,-1.1197 z"
         style="fill:#046ea5" />
      <path
         id="path3624"
         d="m 61.618584,1028.9303 c -3.666517,-1.2072 -5.927064,-4.201 -5.952007,-7.8827 -0.03834,-5.6597 5.409382,-9.5375 10.812424,-7.6965 1.616768,0.5509 3.504225,2.2418 4.396188,3.9385 0.623944,1.1868 0.71676,1.6731 0.717232,3.758 4.52e-4,1.9841 -0.103679,2.5905 -0.607282,3.5366 -0.820242,1.541 -2.353858,3.0265 -3.894381,3.7723 -1.365663,0.6611 -4.279108,0.9666 -5.472174,0.5738 z m 0.923134,-4.8144 1.031136,-1.056 1.145601,1.056 c 0.630081,0.5808 1.231529,1.056 1.336551,1.056 0.367747,0 1.683538,-1.4339 1.683538,-1.8346 0,-0.2226 -0.443385,-0.8588 -0.9853,-1.4137 l -0.985299,-1.0091 0.985299,-1.009 c 1.140163,-1.1676 1.20091,-1.5211 0.406747,-2.3664 -0.793204,-0.8443 -1.229303,-0.7773 -2.403687,0.3695 l -1.009038,0.9853 -1.009038,-0.9853 c -0.554971,-0.542 -1.177046,-0.9853 -1.382388,-0.9853 -0.436734,0 -1.865937,1.3042 -1.865937,1.7027 0,0.15 0.479505,0.7613 1.065568,1.3585 l 1.065567,1.0857 -1.065567,1.0405 c -0.586063,0.5723 -1.065568,1.1593 -1.065568,1.3046 0,0.367 1.364885,1.7566 1.725334,1.7566 0.16244,0 0.759356,-0.4752 1.326481,-1.056 z"
         style="fill:#555d4e" />
      <path
         id="path3622"
         d="m 61.438757,1028.7962 c -3.470451,-1.1354 -5.66618,-4.0912 -5.671447,-7.6347 -0.0038,-2.5663 0.617494,-4.0995 2.372449,-5.8545 1.706942,-1.7069 3.284346,-2.375 5.607507,-2.375 3.021977,0 5.69668,1.6351 7.127923,4.3576 0.623944,1.1868 0.71676,1.6731 0.717232,3.758 6.12e-4,2.7375 -0.464781,3.9282 -2.222397,5.6858 -2.02602,2.0261 -5.378508,2.898 -7.931267,2.0628 z m 1.243402,-4.5866 1.065107,-0.9622 1.065107,0.9622 c 0.585809,0.5293 1.233726,0.9623 1.439815,0.9623 0.365513,0 1.752441,-1.4475 1.752441,-1.829 0,-0.1054 -0.475191,-0.6557 -1.055979,-1.2228 l -1.055979,-1.0312 1.055979,-1.1456 c 0.580788,-0.63 1.055979,-1.2315 1.055979,-1.3365 0,-0.3678 -1.433886,-1.6835 -1.834639,-1.6835 -0.222556,0 -0.858715,0.4433 -1.413686,0.9853 l -1.009038,0.9853 -1.009038,-0.9853 c -0.554971,-0.542 -1.177046,-0.9853 -1.382388,-0.9853 -0.436734,0 -1.865937,1.3042 -1.865937,1.7027 0,0.15 0.479505,0.7613 1.065568,1.3585 l 1.065567,1.0857 -1.065567,1.0405 c -0.586063,0.5723 -1.065568,1.1593 -1.065568,1.3046 0,0.3954 1.378167,1.7566 1.778569,1.7566 0.191719,0 0.827878,-0.433 1.413687,-0.9623 z"
         style="fill:#004c4c" />
    </g>
  </g>
</svg>
