<?xml version="1.0" encoding="UTF-8" standalone="no"?>
<svg
   xmlns:dc="http://purl.org/dc/elements/1.1/"
   xmlns:cc="http://creativecommons.org/ns#"
   xmlns:rdf="http://www.w3.org/1999/02/22-rdf-syntax-ns#"
   xmlns:svg="http://www.w3.org/2000/svg"
   xmlns="http://www.w3.org/2000/svg"
   version="1.1"
   id="svg2"
   viewBox="0 0 85.000001 85.000001"
   height="85"
   width="85">
  <defs
     id="defs4" />
  <metadata
     id="metadata7">
    <rdf:RDF>
      <cc:Work
         rdf:about="">
        <dc:format>image/svg+xml</dc:format>
        <dc:type
           rdf:resource="http://purl.org/dc/dcmitype/StillImage" />
        <dc:title></dc:title>
      </cc:Work>
    </rdf:RDF>
  </metadata>
  <g
     transform="translate(0,-967.36216)"
     id="layer1">
    <g
       transform="matrix(5.9180668,0,0,5.9180668,-159.35417,-4948.0061)"
       id="g3722">
      <path
         id="path3738"
         d="m 29.492436,1009.5701 c -1.393505,-1.3935 -2.533646,-2.7173 -2.533646,-2.9418 0,-0.5947 1.639188,-2.1494 2.266234,-2.1494 0.343374,0 1.0124,0.4831 1.934329,1.3969 l 1.409397,1.3968 3.109027,-3.103 c 2.532708,-2.5279 3.194283,-3.076 3.568949,-2.9571 0.536266,0.1702 2.064619,1.7953 2.064619,2.1953 0,0.4633 -8.382298,8.6959 -8.854035,8.6959 -0.250514,0 -1.493002,-1.0618 -2.964874,-2.5336 z"
         style="fill:#fcf2d3" />
      <path
         id="path3736"
         d="m 29.727589,1009.5932 c -1.640248,-1.6183 -2.544541,-2.6781 -2.544541,-2.982 0,-0.5861 1.547356,-2.1323 2.133879,-2.1323 0.238166,0 1.065594,0.627 1.83873,1.3932 l 1.405701,1.3932 3.103473,-3.0751 c 1.70691,-1.6914 3.234812,-3.0752 3.395337,-3.0752 0.386136,0 2.251177,1.8745 2.251177,2.2626 0,0.3992 -8.331592,8.7261 -8.731011,8.7261 -0.169513,0 -1.453248,-1.1297 -2.852745,-2.5105 z"
         style="fill:#99e2f6" />
      <path
         id="path3734"
         d="m 29.732095,1009.5976 c -1.643417,-1.6214 -2.549047,-2.6824 -2.549047,-2.9864 0,-0.5335 1.525295,-2.1323 2.034262,-2.1323 0.183376,0 0.984338,0.6568 1.779914,1.4595 l 1.446503,1.4595 3.035095,-3.0293 c 3.406289,-3.3998 3.68788,-3.5316 4.891496,-2.2898 1.228769,1.2678 1.141285,1.423 -3.263823,5.7927 -2.189325,2.1716 -4.170663,4.0143 -4.402972,4.0948 -0.328217,0.1137 -0.99066,-0.4144 -2.971428,-2.3687 z"
         style="fill:#61c5eb" />
      <path
         id="path3732"
         d="m 29.590005,1009.465 c -1.476951,-1.4815 -2.406957,-2.5904 -2.406957,-2.8698 0,-0.4986 1.523872,-2.1163 1.993524,-2.1163 0.16097,0 0.968725,0.6527 1.795011,1.4504 l 1.502338,1.4504 3.01398,-3.0202 c 1.921547,-1.9255 3.1815,-3.0202 3.476164,-3.0202 0.524103,0 2.123022,1.5289 2.123022,2.03 0,0.5172 -8.114905,8.5101 -8.639998,8.5101 -0.27375,0 -1.39327,-0.946 -2.857084,-2.4144 z"
         style="fill:#ae9263" />
      <path
         id="path3730"
         d="m 29.580909,1009.4461 c -1.318823,-1.3383 -2.397861,-2.5788 -2.397861,-2.7565 0,-0.3355 1.785275,-2.2107 2.104687,-2.2107 0.09983,0 0.881841,0.6761 1.737801,1.5025 l 1.556291,1.5025 3.078174,-3.0723 c 1.692996,-1.6898 3.232992,-3.0723 3.422212,-3.0723 0.434621,0 2.004874,1.59 2.004874,2.03 0,0.5251 -8.115509,8.5101 -8.649094,8.5101 -0.28725,0 -1.357189,-0.9112 -2.857084,-2.4333 z"
         style="fill:#766d4e" />
      <path
         id="path3728"
         d="m 29.67649,1009.3176 c -2.190743,-2.2204 -2.496551,-2.6198 -2.294816,-2.9967 0.235279,-0.4396 1.728581,-1.842 1.96144,-1.842 0.06937,0 0.826462,0.6761 1.682422,1.5025 l 1.556291,1.5025 3.078174,-3.0723 c 1.692996,-1.6898 3.232992,-3.0723 3.422212,-3.0723 0.434621,0 2.004874,1.59 2.004874,2.03 0,0.4406 -8.09456,8.5101 -8.53645,8.5101 -0.190619,0 -1.483985,-1.1528 -2.874147,-2.5618 z"
         style="fill:#005a87" />
      <path
         id="path3726"
         d="m 29.693553,1009.3349 c -1.380777,-1.3995 -2.510505,-2.6102 -2.510505,-2.6905 0,-0.3343 1.651691,-1.9412 1.995379,-1.9412 0.205358,0 0.972558,0.6055 1.70489,1.3455 0.732331,0.7401 1.436989,1.3456 1.565906,1.3456 0.128917,0 1.593962,-1.3624 3.255655,-3.0275 1.661694,-1.6651 3.160681,-3.0275 3.331083,-3.0275 0.393404,0 2.051126,1.6441 2.051126,2.0342 0,0.4237 -8.101568,8.5059 -8.526283,8.5059 -0.196211,0 -1.486473,-1.145 -2.867251,-2.5445 z"
         style="fill:#004c63" />
      <path
         id="path3724"
         d="m 29.693553,1009.3349 c -1.380777,-1.3995 -2.510505,-2.6102 -2.510505,-2.6905 0,-0.3343 1.651691,-1.9412 1.995379,-1.9412 0.205358,0 0.972558,0.6055 1.70489,1.3455 0.732331,0.7401 1.436989,1.3456 1.565906,1.3456 0.128917,0 1.593962,-1.3624 3.255655,-3.0275 1.661694,-1.6651 3.128328,-3.0275 3.259187,-3.0275 0.35521,0 1.898763,1.6503 1.898763,2.03 0,0.3698 -8.058267,8.5101 -8.42432,8.5101 -0.128948,0 -1.364177,-1.145 -2.744955,-2.5445 z"
         style="fill:#004c4c" />
    </g>
  </g>
</svg>
