<?xml version="1.0" encoding="UTF-8" standalone="no"?>
<svg
   xmlns:dc="http://purl.org/dc/elements/1.1/"
   xmlns:cc="http://creativecommons.org/ns#"
   xmlns:rdf="http://www.w3.org/1999/02/22-rdf-syntax-ns#"
   xmlns:svg="http://www.w3.org/2000/svg"
   xmlns="http://www.w3.org/2000/svg"
   version="1.1"
   id="svg2"
   viewBox="0 0 85.000001 85.000001"
   height="85"
   width="85">
  <defs
     id="defs4" />
  <metadata
     id="metadata7">
    <rdf:RDF>
      <cc:Work
         rdf:about="">
        <dc:format>image/svg+xml</dc:format>
        <dc:type
           rdf:resource="http://purl.org/dc/dcmitype/StillImage" />
        <dc:title></dc:title>
      </cc:Work>
    </rdf:RDF>
  </metadata>
  <g
     transform="translate(0,-967.36216)"
     id="layer1">
    <g
       transform="matrix(4.6895013,0,0,4.6895013,-27.925809,-3582.839)"
       id="g3516">
      <path
         id="path3534"
         d="m 6.8721685,987.60853 c -0.2955885,-0.11909 -0.6648291,-0.45458 -0.8205347,-0.74551 -0.249295,-0.46582 0.2011787,-1.41487 3.7723784,-7.9476 3.2892548,-6.01698 4.1787878,-7.46332 4.7081248,-7.65518 0.433762,-0.15723 0.792677,-0.14957 1.070177,0.0228 0.481654,0.29924 8.365451,14.51997 8.393867,15.14079 0.01039,0.22696 -0.272799,0.6421 -0.629306,0.92253 -0.625259,0.49183 -0.919018,0.50931 -8.302733,0.49427 -4.209997,-0.009 -7.896385,-0.11303 -8.1919735,-0.23213 z m 9.2233225,-3.74989 c -0.07528,-1.04044 -0.08073,-1.04589 -1.121176,-1.12117 l -1.04553,-0.0756 0,1.12118 0,1.12117 1.121176,0 1.121176,0 -0.07565,-1.04553 z m 0.04736,-5.11812 0,-2.47355 -1.168533,0.075 -1.168533,0.075 -0.07833,1.35304 c -0.04308,0.74417 -0.0086,1.82353 0.07658,2.39857 l 0.154907,1.04553 1.091957,0 1.091958,0 0,-2.47355 z"
         style="fill:#d5e8ea" />
      <path
         id="path3532"
         d="m 6.1575549,986.99616 c -0.3955601,-0.6037 -0.334284,-0.73932 3.6229308,-8.01867 2.7111033,-4.98711 4.2060103,-7.49014 4.5788123,-7.66663 1.133198,-0.53649 1.505588,-0.0349 5.686726,7.65938 3.961072,7.28932 4.019659,7.41909 3.622931,8.02457 l -0.403249,0.61544 -8.352893,0 -8.3528926,0 -0.4023655,-0.61409 z m 9.8622891,-3.07601 0,-1.10704 -1.107031,0 c -1.075705,0 -1.109262,0.0233 -1.185866,0.82295 -0.127018,1.32591 0.06506,1.55219 1.245117,1.46687 l 1.04778,-0.0757 0,-1.10703 z m 0.123004,-5.16615 0,-2.46007 -1.230035,0 -1.230035,0 0,2.46007 0,2.46007 1.230035,0 1.230035,0 0,-2.46007 z"
         style="fill:#9feafb" />
      <path
         id="path3530"
         d="m 6.1575549,986.99616 c -0.3955601,-0.6037 -0.334284,-0.73932 3.6229308,-8.01867 4.3124743,-7.93285 4.6242033,-8.33652 5.7624203,-7.46192 0.7356,0.56523 8.226156,14.1944 8.226156,14.9676 0,1.1095 -0.138831,1.12708 -8.899779,1.12708 l -8.3093626,0 -0.4023655,-0.61409 z m 9.8622891,-3.07601 0,-1.10704 -1.168533,-0.075 -1.168533,-0.075 0,1.07951 c 0,0.59373 0.07901,1.15852 0.175581,1.25509 0.09657,0.0966 0.622409,0.1427 1.168533,0.1025 l 0.992952,-0.0731 0,-1.10703 z m 0.07011,-5.10465 0.07011,-2.52157 -1.238641,0 -1.238641,0 0,2.41907 c 0,1.33049 0.07901,2.49808 0.175581,2.59465 0.09657,0.0966 0.622409,0.14269 1.168533,0.1025 l 0.992952,-0.0731 0.07011,-2.52157 z"
         style="fill:#f1d79d" />
      <path
         id="path3528"
         d="m 6.3112265,987.13441 c -0.1400643,-0.26171 -0.2546624,-0.61695 -0.2546624,-0.78942 0,-0.63851 7.7531699,-14.55103 8.3136539,-14.91827 0.52007,-0.34076 0.624833,-0.33241 1.179661,0.0941 0.730042,0.56114 8.219183,14.19455 8.219183,14.96239 0,1.10947 -0.139003,1.12708 -8.896795,1.12708 -7.9604954,0 -8.3169824,-0.0198 -8.5610405,-0.47584 z m 9.7835985,-3.27577 0.07498,-1.16853 -1.243514,0 -1.243514,0 0,1.06603 c 0,0.58632 0.07901,1.14504 0.175581,1.24161 0.09657,0.0966 0.622409,0.1427 1.168533,0.1025 l 0.992952,-0.0731 0.07498,-1.16854 z m 0.07816,-4.85863 c 0.08423,-1.28539 0.105368,-2.4201 0.04698,-2.52157 -0.05838,-0.10148 -0.653136,-0.18451 -1.32167,-0.18451 l -1.215516,0 0,2.41907 c 0,1.33049 0.07901,2.49808 0.175581,2.59465 0.09657,0.0966 0.622409,0.14269 1.168533,0.1025 l 0.992952,-0.0731 0.153137,-2.33706 z"
         style="fill:#c79f65" />
      <path
         id="path3526"
         d="m 6.4637025,987.16037 c -0.2239261,-0.24744 -0.4071384,-0.58119 -0.4071384,-0.74167 0,-0.60255 7.9402239,-14.81798 8.4202909,-15.07491 0.391676,-0.20962 0.623287,-0.16936 1.089664,0.18941 0.71868,0.55286 8.202543,14.19296 8.202543,14.94997 0,1.10803 -0.147767,1.12708 -8.744319,1.12708 -7.586941,0 -8.1822114,-0.0313 -8.5610405,-0.44988 z m 9.6791455,-3.24022 0,-1.23004 -1.230035,0 -1.230035,0 0,1.06603 c 0,0.58632 0.0738,1.13983 0.164005,1.23004 0.0902,0.0902 0.643718,0.164 1.230035,0.164 l 1.06603,0 0,-1.23003 z m -0.144988,-2.67051 c 0.07153,-0.11574 0.205107,-1.27812 0.296836,-2.58307 l 0.16678,-2.37264 -1.389349,0 -1.389349,0 0,2.41907 c 0,1.33049 0.0738,2.49287 0.164005,2.58307 0.238953,0.23895 1.998168,0.20098 2.151077,-0.0464 z"
         style="fill:#3caedd" />
      <path
         id="path3524"
         d="m 6.4637025,987.16037 c -0.2239261,-0.24744 -0.4071384,-0.58119 -0.4071384,-0.74167 0,-0.52983 7.9142449,-14.80418 8.3280679,-15.02074 0.957463,-0.50105 1.419714,0.1354 5.414508,7.45496 2.183457,4.00069 3.969922,7.42453 3.969922,7.60852 0,0.18399 -0.202447,0.51774 -0.449883,0.74167 -0.399205,0.36128 -1.350972,0.40714 -8.44911,0.40714 -7.4370954,0 -8.0278391,-0.0316 -8.4063665,-0.44988 z m 9.6791455,-3.24022 0,-1.23004 -1.230035,0 -1.230035,0 0,1.23004 0,1.23003 1.230035,0 1.230035,0 0,-1.23003 z m -0.144988,-2.67051 c 0.07153,-0.11574 0.205107,-1.27812 0.296836,-2.58307 l 0.16678,-2.37264 -1.512352,0 -1.512352,0 0.0017,0.92253 c 9.6e-4,0.50739 0.07232,1.66977 0.158578,2.58307 l 0.156828,1.66055 1.056939,0 c 0.581316,0 1.115464,-0.0947 1.186995,-0.21044 z"
         style="fill:#94724d" />
      <path
         id="path3522"
         d="M 6.4033068,986.99577 C 6.009562,986.39484 6.049737,986.29045 8.2257124,982.26014 14.265516,971.07331 14.001578,971.4968 14.934049,971.4968 l 0.839788,0 3.984834,7.2572 c 2.191659,3.99146 3.990584,7.43378 3.997613,7.64959 0.007,0.21581 -0.189669,0.57559 -0.437105,0.79952 -0.399283,0.36135 -1.353228,0.40714 -8.481567,0.40714 l -8.0316847,0 -0.4026205,-0.61448 z m 9.7395412,-3.07562 0,-1.23004 -1.230035,0 -1.230035,0 0,1.23004 0,1.23003 1.230035,0 1.230035,0 0,-1.23003 z m 0.09225,-3.22885 c 0.08457,-0.42282 0.153755,-1.5852 0.153755,-2.58307 l 0,-1.8143 -1.476042,0 -1.476041,0 0.0017,0.92253 c 9.6e-4,0.50739 0.07232,1.66977 0.158578,2.58307 l 0.156828,1.66055 1.16371,0 c 1.106549,0 1.171262,-0.0378 1.317464,-0.76878 z"
         style="fill:#615b4c" />
      <path
         id="path3520"
         d="m 6.7330832,987.34454 c -0.2367817,-0.13792 -0.4305121,-0.5253 -0.4305121,-0.86086 0,-0.58705 7.0323319,-13.78628 7.8271319,-14.69102 0.22953,-0.26128 0.64527,-0.41223 1.016281,-0.36901 0.548793,0.0639 1.129629,0.98698 4.612687,7.33035 2.191659,3.99146 3.990584,7.43378 3.997613,7.64959 0.007,0.21581 -0.189669,0.57559 -0.437105,0.79952 -0.399227,0.3613 -1.334101,0.4063 -8.302733,0.39966 -4.874639,-0.005 -8.0161235,-0.10258 -8.2833628,-0.25823 z m 9.6077488,-3.4859 0.07498,-1.16853 -1.366517,0 -1.366517,0 0,1.24289 0,1.24289 1.291537,-0.0744 1.291536,-0.0743 0.07498,-1.16854 z m -0.0049,-5.04314 0.07011,-2.52157 -1.484648,0 -1.484647,0 0.0017,0.92253 c 9.6e-4,0.50739 0.07281,1.67498 0.159659,2.59465 l 0.157911,1.67214 1.25488,-0.0731 1.254883,-0.0731 0.07011,-2.52157 z"
         style="fill:#0065a1" />
      <path
         id="path3518"
         d="m 6.7330832,987.34454 c -0.2367817,-0.13792 -0.4305121,-0.5253 -0.4305121,-0.86086 0,-0.63813 7.1028249,-13.90669 7.8753359,-14.71166 1.002151,-1.04426 1.359171,-0.59027 5.470539,6.95648 2.142602,3.93292 3.874609,7.39384 3.874609,7.74229 0,0.37122 -0.19552,0.73477 -0.475841,0.8848 -0.639942,0.34248 -15.7246871,0.33227 -16.3141308,-0.011 z m 9.6082668,-3.49859 0.0755,-1.18123 -1.428537,0.0742 c -1.423123,0.0739 -1.428836,0.0773 -1.507372,0.89714 -0.131782,1.37564 0.04431,1.54877 1.490624,1.46557 l 1.294287,-0.0744 0.0755,-1.18123 z m -0.0054,-5.03045 0.07011,-2.52157 -1.484648,0 -1.484647,0 0,2.41907 c 0,1.33049 0.07878,2.49784 0.175055,2.59412 0.09628,0.0963 0.732824,0.14241 1.41454,0.10251 l 1.239484,-0.0726 0.07011,-2.52157 z"
         style="fill:#004c4c" />
    </g>
  </g>
</svg>
